# xmcd
#
# Track frame offsets:
#	150
#	16772
#	38590
#	56020
#	76625
#	84272
#	104495
#	118390
#	133280
#	155945
#
# Disc length: 2217 seconds
#
# Revision: 1
# Processed by: cddbd v1.5.1PL0 Copyright (c) Steve Scherf et al.
# Submitted via: CDex 1.50Beta5
#
DISCID=7c08a70a
DTITLE=MASTER OF THE GAME - CHAPTER 10
DYEAR=1900
DGENRE=
TTITLE0=unit  1
TTITLE1=unit  2
TTITLE2=unit  3
TTITLE3=unit  4
TTITLE4=unit  5
TTITLE5=unit  6
TTITLE6=unit  7
TTITLE7=unit  8
TTITLE8=unit  9
TTITLE9=MASTER OF THE GAME/unit 10
EXTD=
EXTT0=
EXTT1=
EXTT2=
EXTT3=
EXTT4=
EXTT5=
EXTT6=
EXTT7=
EXTT8=
EXTT9=
PLAYORDER=
